<svg xmlns="http://www.w3.org/2000/svg" xmlns:xlink="http://www.w3.org/1999/xlink" width="220" zoomAndPan="magnify" viewBox="0 0 165 82.499998" height="110" preserveAspectRatio="xMidYMid meet" version="1.0"><defs><clipPath id="cec08b5280"><path d="M 0.496094 0 L 164.503906 0 L 164.503906 82.003906 L 0.496094 82.003906 Z M 0.496094 0 " clip-rule="nonzero"/></clipPath><clipPath id="5d5869aba3"><path d="M 0.496094 0.359375 L 164.503906 0.359375 L 164.503906 81.617188 L 0.496094 81.617188 Z M 0.496094 0.359375 " clip-rule="nonzero"/></clipPath></defs><g clip-path="url(#cec08b5280)"><path fill="#ffffff" d="M 0.496094 0 L 164.503906 0 L 164.503906 82.003906 L 0.496094 82.003906 Z M 0.496094 0 " fill-opacity="1" fill-rule="nonzero"/></g><g clip-path="url(#5d5869aba3)"><path fill="#ffffff" d="M 172.871094 0.359375 L -8.195312 0.359375 L -8.195312 81.539062 L 172.871094 81.539062 Z M 172.871094 0.359375 " fill-opacity="1" fill-rule="evenodd"/></g><path fill="#003b5a" d="M 43.316406 40.726562 C 40.777344 40.726562 38.238281 42.164062 35.699219 45.042969 L 36.511719 46.132812 C 38.621094 49.011719 40.507812 50.449219 42.171875 50.449219 C 43.328125 50.449219 44.371094 49.832031 45.308594 48.597656 C 46.238281 47.363281 46.707031 45.984375 46.707031 44.460938 C 46.707031 41.96875 45.574219 40.726562 43.316406 40.726562 M 26.550781 36.367188 L 27.433594 37.050781 C 29.726562 35.835938 30.871094 34.039062 30.871094 31.667969 C 30.871094 30.316406 30.414062 29.210938 29.503906 28.351562 C 28.589844 27.496094 27.410156 27.0625 25.964844 27.0625 C 24.800781 27.0625 23.84375 27.386719 23.097656 28.027344 C 22.355469 28.671875 21.984375 29.496094 21.984375 30.503906 C 21.984375 32.042969 23.507812 34 26.550781 36.367188 M 46.960938 49.589844 C 44.992188 51.980469 42.902344 53.171875 40.695312 53.171875 C 38.578125 53.171875 36.394531 51.5625 34.144531 48.328125 L 33.394531 47.261719 C 31.9375 48.777344 30.324219 50.199219 30.324219 50.199219 C 28.222656 52.039062 25.898438 52.898438 23.476562 52.898438 C 21.527344 52.898438 19.875 52.28125 18.53125 51.054688 C 17.179688 49.832031 16.507812 48.328125 16.507812 46.550781 C 16.507812 43.347656 18.847656 40.40625 23.535156 37.726562 L 23.097656 37.351562 C 20.6875 35.382812 19.488281 33.570312 19.488281 31.921875 C 19.488281 30.105469 20.347656 28.480469 22.070312 27.050781 C 23.796875 25.621094 25.75 24.910156 27.9375 24.910156 C 29.65625 24.910156 31.058594 25.382812 32.15625 26.34375 C 33.246094 27.300781 33.796875 28.523438 33.796875 30.007812 C 33.796875 32.183594 32.136719 34.441406 28.824219 36.769531 L 27.992188 37.351562 L 28.46875 37.726562 C 31.09375 39.429688 33.691406 41.019531 33.921875 42.792969 C 34.183594 44.78125 33.03125 46.050781 30.503906 45.824219 C 31.175781 45.316406 31.257812 44.605469 30.953125 44.027344 C 29.773438 41.78125 28.910156 42.058594 24.886719 38.828125 L 24.117188 38.226562 C 20.992188 40.464844 19.433594 42.625 19.433594 44.710938 C 19.433594 46.3125 19.777344 48.175781 21.28125 49.324219 C 22.585938 50.324219 24.269531 50.933594 26.726562 50.324219 L 26.742188 50.308594 C 27.148438 50.183594 27.554688 50.023438 27.960938 49.828125 C 29.464844 49.109375 31.003906 47.898438 32.589844 46.199219 L 35.097656 43.796875 C 38.863281 39.714844 42.335938 37.675781 45.507812 37.675781 C 48.445312 37.675781 49.921875 39.101562 49.921875 41.953125 C 49.921875 44.652344 48.933594 47.199219 46.960938 49.589844 M 32.488281 20.683594 C 21.289062 20.683594 12.203125 29.773438 12.203125 40.988281 C 12.203125 52.199219 21.289062 61.292969 32.488281 61.292969 C 43.691406 61.292969 52.777344 52.199219 52.777344 40.988281 C 52.777344 29.773438 43.691406 20.683594 32.488281 20.683594 " fill-opacity="1" fill-rule="nonzero"/><path fill="#003b5a" d="M 63.898438 44.914062 L 65.113281 44.914062 C 67.480469 44.914062 67.890625 44.203125 67.890625 43.136719 C 67.890625 41.972656 67.359375 41.117188 65.214844 41.117188 L 63.898438 41.117188 Z M 64.8125 40.242188 C 66.066406 40.242188 67.667969 40.265625 67.667969 38.5625 C 67.667969 36.84375 66.152344 36.917969 64.886719 36.917969 L 63.898438 36.917969 L 63.898438 40.242188 Z M 62.875 45.792969 L 62.875 36.042969 L 65.550781 36.042969 C 68.042969 36.042969 68.695312 37.457031 68.695312 38.546875 C 68.695312 39.585938 68.09375 40.402344 67.082031 40.652344 C 68.242188 41.003906 68.921875 41.832031 68.921875 43.070312 C 68.921875 44.226562 68.421875 45.792969 65.703125 45.792969 Z M 62.875 45.792969 " fill-opacity="1" fill-rule="nonzero"/><path fill="#003b5a" d="M 75.570312 36.917969 L 71.3125 36.917969 L 71.3125 40.242188 L 74.351562 40.242188 L 74.351562 41.117188 L 71.3125 41.117188 L 71.3125 44.914062 L 75.855469 44.914062 L 75.855469 45.792969 L 70.285156 45.792969 L 70.285156 36.042969 L 75.570312 36.042969 Z M 75.570312 36.917969 " fill-opacity="1" fill-rule="nonzero"/><path fill="#003b5a" d="M 82.957031 36.917969 L 80.339844 36.917969 L 80.339844 45.792969 L 79.3125 45.792969 L 79.3125 36.917969 L 76.695312 36.917969 L 76.695312 36.042969 L 82.957031 36.042969 Z M 82.957031 36.917969 " fill-opacity="1" fill-rule="nonzero"/><path fill="#003b5a" d="M 85.925781 36.691406 L 85.898438 36.691406 L 84.621094 41.808594 L 87.289062 41.808594 Z M 89.46875 45.792969 L 88.414062 45.792969 L 87.53125 42.6875 L 84.359375 42.6875 L 83.519531 45.792969 L 82.46875 45.792969 L 85.210938 36.042969 L 86.664062 36.042969 Z M 89.46875 45.792969 " fill-opacity="1" fill-rule="nonzero"/><path fill="#003b5a" d="M 98.507812 38.300781 C 98.507812 37.28125 97.757812 36.71875 96.78125 36.71875 C 95.890625 36.71875 94.914062 37.207031 94.914062 38.222656 C 94.914062 39.210938 95.890625 39.828125 96.730469 40.125 C 97.617188 39.878906 98.507812 39.335938 98.507812 38.300781 M 94.539062 43.25 C 94.539062 44.476562 95.53125 45.117188 96.65625 45.117188 C 97.796875 45.117188 98.820312 44.515625 98.820312 43.261719 C 98.820312 41.957031 97.59375 41.417969 96.515625 41.078125 C 95.515625 41.429688 94.539062 42.058594 94.539062 43.25 M 99.796875 43.324219 C 99.796875 45.066406 98.292969 45.992188 96.703125 45.992188 C 95.089844 45.992188 93.5625 45.140625 93.5625 43.351562 C 93.5625 41.921875 94.363281 41.191406 95.554688 40.589844 C 94.601562 40.015625 93.9375 39.4375 93.9375 38.246094 C 93.9375 36.707031 95.316406 35.839844 96.730469 35.839844 C 98.09375 35.839844 99.484375 36.742188 99.484375 38.234375 C 99.484375 39.398438 98.722656 40.125 97.730469 40.589844 C 98.933594 41.164062 99.796875 41.882812 99.796875 43.324219 " fill-opacity="1" fill-rule="nonzero"/><path fill="#003b5a" d="M 101.800781 40.917969 C 101.800781 42.472656 101.976562 45.117188 103.894531 45.117188 C 105.808594 45.117188 105.984375 42.472656 105.984375 40.917969 C 105.984375 39.359375 105.808594 36.71875 103.894531 36.71875 C 101.976562 36.71875 101.800781 39.359375 101.800781 40.917969 M 106.9375 40.917969 C 106.9375 43.070312 106.460938 45.992188 103.894531 45.992188 C 101.324219 45.992188 100.847656 43.070312 100.847656 40.917969 C 100.847656 38.761719 101.324219 35.839844 103.894531 35.839844 C 106.460938 35.839844 106.9375 38.761719 106.9375 40.917969 " fill-opacity="1" fill-rule="nonzero"/><path fill="#003b5a" d="M 115.636719 42.433594 L 115.636719 40.890625 L 119.207031 40.890625 L 119.207031 45.792969 L 117.84375 45.792969 L 117.65625 45.101562 C 117.101562 45.71875 116.265625 45.941406 115.613281 45.941406 C 112.832031 45.941406 111.59375 43.375 111.59375 40.917969 C 111.59375 38.460938 112.832031 35.890625 115.613281 35.890625 C 117.527344 35.890625 119.007812 37.054688 119.207031 38.914062 L 117.453125 39.171875 C 117.289062 38.234375 116.824219 37.433594 115.613281 37.433594 C 113.933594 37.433594 113.597656 39.664062 113.597656 40.917969 C 113.597656 42.167969 113.933594 44.402344 115.613281 44.402344 C 117.128906 44.402344 117.402344 43.535156 117.328125 42.433594 Z M 115.636719 42.433594 " fill-opacity="1" fill-rule="nonzero"/><path fill="#003b5a" d="M 123.277344 40.089844 C 124.125 40.089844 125.429688 40.140625 125.429688 38.921875 C 125.429688 37.582031 124.113281 37.695312 123.148438 37.695312 L 122.425781 37.695312 L 122.425781 40.089844 Z M 124.3125 36.042969 C 126.554688 36.042969 127.433594 37.644531 127.433594 38.886719 C 127.433594 39.953125 126.769531 40.941406 125.78125 41.34375 L 127.71875 45.792969 L 125.667969 45.792969 L 123.914062 41.746094 L 122.425781 41.746094 L 122.425781 45.792969 L 120.472656 45.792969 L 120.472656 36.042969 Z M 124.3125 36.042969 " fill-opacity="1" fill-rule="nonzero"/><path fill="#003b5a" d="M 130.539062 40.917969 C 130.539062 42.167969 130.875 44.402344 132.554688 44.402344 C 134.230469 44.402344 134.570312 42.167969 134.570312 40.917969 C 134.570312 39.664062 134.230469 37.433594 132.554688 37.433594 C 130.875 37.433594 130.539062 39.664062 130.539062 40.917969 M 136.574219 40.917969 C 136.574219 43.375 135.335938 45.941406 132.554688 45.941406 C 129.773438 45.941406 128.535156 43.375 128.535156 40.917969 C 128.535156 38.460938 129.773438 35.890625 132.554688 35.890625 C 135.335938 35.890625 136.574219 38.460938 136.574219 40.917969 " fill-opacity="1" fill-rule="nonzero"/><path fill="#003b5a" d="M 144.535156 36.042969 L 144.535156 42.785156 C 144.535156 44.792969 143.160156 45.941406 141.109375 45.941406 C 139.054688 45.941406 137.675781 44.792969 137.675781 42.785156 L 137.675781 36.042969 L 139.628906 36.042969 L 139.628906 42.160156 C 139.628906 43.789062 140.117188 44.289062 141.109375 44.289062 C 142.097656 44.289062 142.585938 43.789062 142.585938 42.160156 L 142.585938 36.042969 Z M 144.535156 36.042969 " fill-opacity="1" fill-rule="nonzero"/><path fill="#003b5a" d="M 148.179688 40.402344 C 149.246094 40.402344 150.789062 40.578125 150.789062 39.050781 C 150.789062 37.519531 149.246094 37.695312 148.179688 37.695312 L 147.78125 37.695312 L 147.78125 40.402344 Z M 149.582031 36.042969 C 151.851562 36.042969 152.789062 37.707031 152.789062 39.113281 C 152.789062 40.589844 151.914062 42.058594 149.09375 42.058594 L 147.78125 42.058594 L 147.78125 45.792969 L 145.828125 45.792969 L 145.828125 36.042969 Z M 149.582031 36.042969 " fill-opacity="1" fill-rule="nonzero"/></svg>